<?xml version="1.0" standalone="no"?>
<!DOCTYPE svg PUBLIC "-//W3C//DTD SVG 20010904//EN"
 "http://www.w3.org/TR/2001/REC-SVG-20010904/DTD/svg10.dtd">
<svg version="1.0" xmlns="http://www.w3.org/2000/svg"
 width="500.000000pt" height="499.000000pt" viewBox="0 0 500.000000 499.000000"
 preserveAspectRatio="xMidYMid meet">

<g transform="translate(0.000000,499.000000) scale(0.100000,-0.100000)"
fill="#0E2C60" stroke="none">
<path d="M2165 4930 c-432 -62 -853 -245 -1195 -521 -546 -440 -872 -1069
-921 -1780 -19 -263 11 -542 87 -811 88 -315 253 -634 461 -893 88 -110 269
-290 378 -376 594 -471 1381 -647 2120 -472 698 165 1294 631 1620 1268 304
593 359 1274 154 1898 -123 377 -319 697 -599 978 -175 176 -302 275 -503 394
-281 164 -613 278 -927 319 -170 22 -511 20 -675 -4z m640 -1059 c576 -127
1013 -581 1109 -1152 29 -171 20 -409 -20 -574 -50 -201 -174 -445 -275 -542
-112 -107 -299 -103 -485 8 -94 56 -204 169 -396 406 -101 124 -216 266 -256
314 l-73 89 222 295 222 295 31 -18 c17 -10 37 -30 45 -44 17 -29 35 -3 -158
-233 -56 -66 -101 -124 -101 -129 0 -23 633 -787 687 -829 28 -21 47 -27 85
-27 91 0 130 35 208 191 146 292 172 644 69 951 -88 263 -276 514 -494 657
-342 225 -756 278 -1128 145 -369 -133 -658 -428 -781 -796 -115 -346 -74
-725 113 -1043 323 -549 1013 -770 1598 -512 54 24 123 59 154 79 l56 36 54
-14 c29 -8 73 -14 98 -14 43 0 44 0 26 -20 -29 -32 -184 -134 -265 -175 -471
-236 -1056 -187 -1471 124 -291 219 -485 526 -556 878 -25 126 -25 414 1 538
123 588 585 1032 1176 1130 120 20 385 13 505 -14z m-1225 -673 c24 -8 214
-14 630 -18 639 -7 646 -7 720 -60 36 -26 69 -90 70 -135 l0 -30 -30 37 c-17
20 -56 49 -88 65 l-57 28 -242 3 -243 4 0 -614 c0 -590 1 -614 20 -645 22 -36
66 -63 105 -63 14 0 25 -4 25 -10 0 -6 -108 -10 -305 -10 -197 0 -305 4 -305
10 0 6 12 10 26 10 48 0 95 31 115 74 17 38 19 79 19 644 l0 602 -152 0 c-84
0 -171 -5 -193 -11 -54 -15 -122 -86 -130 -136 -17 -102 -23 -79 -24 90 -1 97
0 177 2 177 1 0 18 -5 37 -12z"/>
</g>
</svg>
